<?xml version="1.0" standalone="no"?>
<!DOCTYPE svg PUBLIC "-//W3C//DTD SVG 20010904//EN"
 "http://www.w3.org/TR/2001/REC-SVG-20010904/DTD/svg10.dtd">
<svg version="1.0" xmlns="http://www.w3.org/2000/svg"
 width="335.000000pt" height="335.000000pt" viewBox="0 0 335.000000 335.000000"
 preserveAspectRatio="xMidYMid meet">
<metadata>
Created by potrace 1.11, written by Peter Selinger 2001-2013
</metadata>
<g transform="translate(0.000000,335.000000) scale(0.100000,-0.100000)"
fill="#000000" stroke="none">
<path d="M610 1670 l0 -1150 260 0 260 0 2 714 3 713 455 -711 456 -711 57 -3
57 -3 0 34 c0 23 8 41 26 58 28 26 28 19 0 159 -42 206 -9 310 154 486 l71 76
-25 25 c-70 69 -156 252 -156 329 0 38 22 64 53 64 31 0 140 -118 207 -223 30
-47 61 -86 68 -87 9 0 12 144 12 690 l0 690 -260 0 -260 0 -2 -717 -3 -716
-459 716 -459 717 -258 0 -259 0 0 -1150z"/>
<path d="M2766 1685 c-48 -62 -87 -156 -84 -203 2 -41 3 -42 19 -25 34 36 91
158 94 200 2 23 6 46 9 52 17 27 -14 7 -38 -24z m-69 -197 c-3 -7 -5 -2 -5 12
0 14 2 19 5 13 2 -7 2 -19 0 -25z"/>
<path d="M2291 1645 c9 -11 36 -56 59 -100 51 -94 100 -168 107 -161 3 2 2 22
-2 44 -7 44 -35 94 -81 143 -38 42 -104 101 -83 74z"/>
<path d="M2550 1350 c0 -5 9 -10 20 -10 11 0 20 5 20 10 0 6 -9 10 -20 10 -11
0 -20 -4 -20 -10z"/>
<path d="M2544 1295 c-9 -23 3 -45 26 -45 22 0 27 16 8 23 -10 3 -10 7 1 20
12 15 11 17 -8 17 -12 0 -24 -7 -27 -15z"/>
<path d="M2392 1258 c-29 -32 -43 -73 -33 -100 7 -19 9 -16 13 20 3 22 16 55
28 72 25 35 22 39 -8 8z"/>
<path d="M2693 1193 c-9 -3 -6 -13 9 -34 29 -39 17 -60 -43 -76 -42 -11 -43
-11 -11 -12 18 -1 43 4 55 11 12 6 34 11 49 10 15 -1 29 2 32 7 3 5 -3 7 -14
4 -25 -7 -37 20 -23 50 6 12 8 28 6 35 -5 12 -37 15 -60 5z"/>
<path d="M2266 1051 c-10 -11 -16 -24 -15 -29 2 -5 14 4 27 20 26 31 15 39
-12 9z"/>
<path d="M2776 1061 c-10 -15 -207 -24 -240 -12 -41 16 -44 6 -5 -14 26 -14
46 -16 93 -10 34 3 78 7 98 9 21 1 46 9 55 19 10 9 14 17 11 17 -4 0 -9 -4
-12 -9z"/>
<path d="M2262 998 c-7 -7 -12 -23 -12 -37 0 -30 8 -23 20 18 10 35 9 36 -8
19z"/>
<path d="M2282 925 c0 -16 2 -22 5 -12 2 9 2 23 0 30 -3 6 -5 -1 -5 -18z"/>
<path d="M2766 885 c-16 -31 -31 -53 -34 -50 -5 5 -42 -49 -42 -63 0 -17 90
96 104 130 22 56 5 46 -28 -17z"/>
<path d="M2317 877 c-7 -20 6 -62 24 -73 9 -5 10 -2 4 12 -4 10 -10 33 -14 49
-6 24 -8 26 -14 12z"/>
<path d="M2324 719 c3 -37 12 -82 20 -100 20 -47 19 -29 -4 76 l-20 90 4 -66z"/>
<path d="M2650 761 c-6 -12 -7 -21 -1 -21 10 0 24 30 17 37 -2 3 -9 -5 -16
-16z"/>
<path d="M2607 743 c-4 -3 -7 -11 -7 -17 0 -6 5 -5 12 2 6 6 9 14 7 17 -3 3
-9 2 -12 -2z"/>
<path d="M2531 652 c-34 -58 -66 -138 -49 -122 10 9 98 190 94 190 -3 0 -23
-31 -45 -68z"/>
<path d="M2461 623 c-1 -39 -4 -80 -7 -90 -6 -14 -4 -16 6 -6 17 16 25 111 11
143 -8 20 -10 12 -10 -47z"/>
<path d="M2303 613 c15 -16 27 -40 27 -53 0 -18 3 -21 11 -13 18 18 -7 68 -39
83 l-27 12 28 -29z"/>
<path d="M2634 602 c-15 -36 -19 -40 -36 -31 -11 6 -22 8 -25 6 -2 -3 5 -10
16 -17 12 -6 21 -18 21 -27 0 -27 16 -3 34 51 21 60 12 75 -10 18z"/>
<path d="M2181 572 c-13 -25 -14 -42 -2 -42 8 0 23 52 16 58 -2 2 -8 -5 -14
-16z"/>
<path d="M2234 565 c-9 -37 2 -41 14 -6 7 18 7 31 2 31 -5 0 -12 -11 -16 -25z"/>
<path d="M2291 561 c-1 -27 2 -32 11 -23 8 8 8 17 0 34 -10 22 -11 21 -11 -11z"/>
<path d="M2377 566 c-4 -10 -7 -25 -6 -34 0 -11 4 -9 10 7 5 13 8 29 6 35 -2
5 -6 2 -10 -8z"/>
<path d="M2421 560 c-1 -8 -4 -26 -7 -40 -5 -19 -4 -22 5 -14 7 6 11 24 8 40
-2 16 -5 22 -6 14z"/>
<path d="M2667 556 c-4 -10 -5 -21 -2 -24 9 -9 17 6 13 25 -3 17 -4 17 -11 -1z"/>
<path d="M2700 550 c0 -19 3 -21 12 -12 9 9 9 15 0 24 -9 9 -12 7 -12 -12z"/>
<path d="M2526 551 c-4 -7 -5 -15 -2 -18 9 -9 19 4 14 18 -4 11 -6 11 -12 0z"/>
<path d="M2567 543 c-4 -3 -7 -11 -7 -17 0 -6 5 -5 12 2 6 6 9 14 7 17 -3 3
-9 2 -12 -2z"/>
</g>
</svg>
